<svg width="38" height="39" viewBox="0 0 38 39" fill="none" xmlns="http://www.w3.org/2000/svg">
<path d="M20.2764 24.1625V11.7195M20.2764 24.1625L28.8372 29.0542C29.0737 29.1893 29.3416 29.2599 29.6139 29.259C29.8863 29.2581 30.1536 29.1857 30.3892 29.0489C30.6248 28.9123 30.8204 28.7161 30.9564 28.4801C31.0924 28.2441 31.164 27.9765 31.1641 27.7041V8.17793C31.164 7.90554 31.0924 7.63798 30.9564 7.40199C30.8204 7.16596 30.6248 6.96979 30.3892 6.83311C30.1536 6.69643 29.8863 6.62399 29.6139 6.62306C29.3416 6.62216 29.0737 6.69278 28.8372 6.82786L20.2764 11.7195M20.2764 24.1625H15.6103M20.2764 11.7195H10.9442C9.2941 11.7195 7.71166 12.375 6.5449 13.5418C5.37813 14.7085 4.72266 16.291 4.72266 17.941C4.72266 19.5911 5.37813 21.1735 6.5449 22.3403C7.71166 23.5071 9.2941 24.1625 10.9442 24.1625M15.6103 24.1625V31.1617C15.6103 31.7805 15.3645 32.3739 14.9269 32.8115C14.4894 33.249 13.896 33.4948 13.2772 33.4948C12.6585 33.4948 12.065 33.249 11.6275 32.8115C11.19 32.3739 10.9442 31.7805 10.9442 31.1617V24.1625M15.6103 24.1625H10.9442" stroke="#66BB94" stroke-width="1.94422" stroke-linecap="round" stroke-linejoin="round"/>
</svg>
